<svg width="508" height="509" xmlns="http://www.w3.org/2000/svg">
 <!-- Created with SVG Editor - http://github.com/mzalive/SVG Editor/ -->
 <g>
  <title>background</title>
  <rect fill="none" id="canvas_background" height="511" width="510" y="-1" x="-1"/>
 </g>
 <g>
  <title>Layer 1</title>
  <path id="svg_2" d="m318,110" opacity="0.5" fill-opacity="null" stroke-opacity="null" stroke-width="1.5" stroke="#000" fill="none"/>
  <path d="m224.545456,109c0,0 0.959595,0 2.878784,0c1.919189,0 2.878784,0 3.838394,0c0.959595,0 2.878784,0 4.797974,0c2.878784,0 4.797974,0 5.757568,0c0.95961,0 1.919205,0 2.878799,0c0.959595,0 2.878784,0 3.838379,0c1.919189,0 3.838379,0 4.797974,0c0.959595,0 2.878799,0 2.878799,0c1.919189,0 2.878784,0 3.838379,0c1.919189,0 3.838379,0 4.797974,0c0.959595,0 1.919189,0 2.878784,0c0.959595,0 1.919189,0 3.838379,0c1.91922,0 2.878815,0 3.838409,0c1.919189,0 3.838379,0 4.797974,0c0.959595,0 1.919189,0 2.878784,0c0,0 0,0 0.959595,0c0,0 0,0 0,1c0,0 0,1 0,1c0,1 0,2 0,3c0,0 0,1 0,1c0,2 0,3 0,3c0,1 0,2 0,3c0,1 0,2 0,3c0,0 0,2 0,2c0,1 0,1 0,1c0,1 0,1 0,2c0,1 0,2 0,2c0,1 0,3 0.959595,4c0,0 0,2 0,2c0,1 0,2 0,3c0,0 0,0 0,1c0,0 0,1 0,2c0,0 0,0 0,1c0,0 0,0 0,3c0,0 0,1 0,2c0,0 0,0 0,1c0,0 0,1 0,2c0,1 0,2 0,3c0,1 0,3 0,3c0,1 0,1 0,1c0,1 0,3 0,4c0,1 0,1 0,2c0,0 0,1 0,1c0,1 0,1 0,2c0,0 0,0 0,1c0,1 0,1 0,2c0,2 0,2 0,2c0,1 0,2 0,2c0,1 0,1 0,1c0,1 0,2 0,3c0,0 0,1 0,2c0,0 0,1 0,1c0,0 0,0 0,1c0,0 0,1 0,2c0,1 0,1 0,1c0,1 0,1 0,2c0,0 0,1 0,1c0,1 0,2 0,2c0,1 0,2 0,2c0,0 0,1 0,1c0,0 0,1 0,2c0,1 0,3 0,4c0,0 0,1 0,3c0,1 0,1 0,1c0,1 0,1 0,1c0,1 0,1 0,2c0,1 0,1 0,3c0,1 0,1 0,1c0,1 0,2 0,3c0,0 0,1 0,1c0,3 0,4 0,4c0,2 0,3 0,4c0,1 0,2 0,3c0,1 0,1 0,3c0,1 0,2 0,3c0,1 0,2 0,2c0,0 0,1 0,1c0,0 -0.959595,0 -0.959595,0c-0.959595,0 -2.878784,0 -3.838379,0c-0.959595,0 -2.878784,0 -2.878784,0c-1.919189,0 -3.838379,0 -5.757599,0c-0.959595,0 -2.878784,0 -4.797974,0c0,0 -0.959595,0 -1.919189,0c-2.878784,0 -3.838379,0 -3.838379,0c-0.959595,0 -1.919189,0 -2.878784,0c-0.959595,0 -1.919189,0 -2.878784,0c-0.95961,0 -0.95961,0 -1.919205,0c-0.959595,0 -0.959595,0 -1.919189,0c0,0 -0.959595,0 -1.919189,0c0,0 -0.959595,0 -3.838379,0c0,0 -0.959595,0 -0.959595,0c-0.959595,0 -0.959595,0 -1.919189,0c0,0 0,0 -0.95961,0c0,0 -0.959595,0 -0.959595,0c-0.959595,0 -0.959595,0 -0.959595,0c-0.959595,0 -1.919189,0 -1.919189,0c0,0 -1.919189,0 -2.878784,0c-0.959595,0 -1.919189,0 -1.919189,0c-0.959595,0 -1.919189,0 -2.878799,0c-0.959595,0 -1.919189,0 -3.838379,0c-0.959595,0 -1.919189,0 -1.919189,0c-0.959595,0 -1.919189,0 -3.838379,0c-0.959595,0 -0.959595,0 -1.919205,0c-0.959595,0 -0.959595,0 -0.959595,0c-1.919189,0 -1.919189,0 -2.878784,0c0,0 -0.959595,0 -0.959595,0c-0.959595,0 -0.959595,0 -0.959595,0c0,0 -0.959595,0 -0.959595,0c-0.959595,0 -1.919189,0 -1.919189,0c-0.959595,0 -0.959595,0 -0.959595,0c0,0 -0.959595,0 -0.959595,0c0,0 -0.95961,0 -0.95961,0c-0.959595,0 -0.959595,0 -1.919189,0c0,0 -0.959595,0 -0.959595,0c0,0 -0.959595,0 -0.959595,0c-0.959595,0 -0.959595,0 -1.919189,0c0,0 -0.959595,0 -0.959595,0c-0.959595,0 -0.959595,0 -1.919189,0c0,0 -0.959595,0 -0.959595,0c0,0 -0.959595,0 -1.919205,0c0,0 0,0 0,0c-0.959595,0 -1.919189,0 -1.919189,0c-0.959595,0 -0.959595,0 -0.959595,0c0,0 -0.959595,0 -0.959595,0c0,0 -0.959595,0 -0.959595,0c0,0 0,1 0,1c0,0 0,1 0,1c0,1 0,1 0,2c0,0 0,1 0,1c0,1 0,2 0,2c0,0 0,1 0,1c0,0 0,0 0,1c0,0 0,0 0,1c0,1 0,1 0,1c0,1 0,1 0,2c0,0 0,0 0,0c0,1 0,1 0,1c0,1 0,2 0,2c0,1 0,1 0,1c0,1 0,1 0,1c0,1 0,2 0,3c0,0 0,0 0,1c0,0 0,1 0,1c0,1 0,1 0,2c0,0 0,1 0,2c0,0 0,1 0,1c0,1 0,2 0,3c0,1 0,2 0,4c0,0 -0.959595,1 -0.959595,2c0,0 0,0 0,1c0,0 0,0 0,1c0,1 0,1 0,2c0,0 0,0 0,1c0,1 0,1 0,2l0,0l0,0" id="svg_6" fill-opacity="null" stroke-opacity="null" stroke-width="4.5" stroke="#000" fill="none"/>
 </g>
</svg>